<?xml version="1.0" standalone="no"?><!DOCTYPE svg PUBLIC "-//W3C//DTD SVG 1.1//EN" "http://www.w3.org/Graphics/SVG/1.1/DTD/svg11.dtd"><svg width="100%" height="100%" viewBox="0 0 1000 200" version="1.1" xmlns="http://www.w3.org/2000/svg" xmlns:xlink="http://www.w3.org/1999/xlink" xml:space="preserve" style="fill-rule:evenodd;clip-rule:evenodd;stroke-linejoin:round;stroke-miterlimit:1.41421;"><g id="Layer1"><path d="M167.974,7.33297l31.9178,0l0,189.072l-34.6227,0l-107.114,-137.95l0,137.95l-31.9178,0l0,-189.072l31.9178,0l109.819,141.196l0,-141.196Z" style="fill:#f5e1be;fill-rule:nonzero;"/><path d="M339.735,31.9475c-18.7539,0 -34.5776,6.67208 -47.4709,20.0162c-12.8933,13.3442 -19.34,29.5284 -19.34,48.5529c-5.68434e-14,19.0244 6.44667,35.2087 19.34,48.5529c12.8933,13.3442 28.717,20.0162 47.4709,20.0162c18.7539,0 34.5776,-6.67208 47.4709,-20.0162c12.8933,-13.3442 19.34,-29.5284 19.34,-48.5529c0,-19.0244 -6.44667,-35.2087 -19.34,-48.5529c-12.8933,-13.3442 -28.717,-20.0162 -47.4709,-20.0162ZM339.735,198.299c-28.1309,0 -51.7537,-9.33189 -70.8683,-27.9957c-19.1146,-18.6638 -28.6719,-41.9259 -28.6719,-69.7863c0,-27.8604 9.5573,-51.1225 28.6719,-69.7863c19.1146,-18.6638 42.7374,-27.9957 70.8683,-27.9957c28.1309,5.68434e-14 51.7537,9.33189 70.8683,27.9957c19.1146,18.6638 28.6719,41.9259 28.6719,69.7863c0,27.8604 -9.5573,51.1225 -28.6719,69.7863c-19.1146,18.6638 -42.7374,27.9957 -70.8683,27.9957Z" style="fill:#f5e1be;fill-rule:nonzero;"/><path d="M545.848,36.5458l0,159.859l-31.9178,0l0,-159.859l-57.3438,0l0,-29.2129l146.605,0l0,29.2129l-57.3438,0Z" style="fill:#f5e1be;fill-rule:nonzero;"/><path d="M770.625,7.33297l0,30.0243l-100.893,0l0,50.0406l90.614,0l0,28.4014l-90.614,0l0,50.5816l104.138,0l0,30.0243l-136.056,0l0,-189.072l132.81,0Z" style="fill:#f5e1be;fill-rule:nonzero;"/><path d="M957.804,32.0828c18.213,16.4999 27.3194,39.4464 27.3194,68.8396c0,29.3932 -8.83599,52.6553 -26.508,69.7863c-17.672,17.131 -44.7209,25.6965 -81.1469,25.6965l-62.7536,0l0,-189.072l64.9175,0c33.9014,0 59.9585,8.24993 78.1715,24.7498ZM952.935,101.734c0,-43.2783 -24.7949,-64.9175 -74.3846,-64.9175l-31.9178,0l0,129.565l35.4341,0c22.9015,0 40.4382,-5.45487 52.6102,-16.3646c12.172,-10.9097 18.258,-27.0039 18.258,-48.2824Z" style="fill:#f5e1be;fill-rule:nonzero;"/></g></svg>